<svg width="1440" height="1118" viewBox="0 0 1440 1118" fill="none" xmlns="http://www.w3.org/2000/svg">
<path d="M-163 803.302C-152.95 805.81 -146.092 808.606 -136.677 813.371C-86.7594 838.636 -37.1197 863.937 14.9209 885.873C188.606 959.086 371.503 993.162 562.133 1013.42C572.829 1014.56 787.148 1038.23 778.482 995.634C776.366 985.229 770.82 975.543 765.801 965.928C742.157 920.631 706.934 866.423 679.915 824.616C636.425 757.325 590.075 691.499 546.57 624.228C519.487 582.35 432.309 475.833 513.714 438.442C554.763 419.587 610.862 434.492 652.823 442.469C730.151 457.17 799.456 487.523 879.547 491.475C916.063 493.277 963.132 498.62 985.993 467.812C1003.27 444.528 990.591 412.338 977.923 389.603C950.863 341.043 913.22 296.933 883.967 249.298C863.969 216.735 836.649 166.305 865.329 130.643C882.734 109.002 908.062 97.8786 937.958 97.0776C1006.44 95.2427 1080.9 126.396 1144.51 144.741C1264.68 179.399 1382.87 218.413 1504 250.473" stroke="#EDEFF8" stroke-opacity="0.5" stroke-width="194" stroke-linecap="round"/>
</svg>
