<svg width="24" height="24" viewBox="0 0 24 24" fill="none" xmlns="http://www.w3.org/2000/svg">

<path d="M19.2 4.39972L2.89997 10.6997C1.79997 11.0997 1.79997 11.7997 2.69997 11.9997L6.79997 13.2997L8.39997 18.0997C8.59997 18.5997 8.49997 18.7997 8.99997 18.7997C9.39997 18.7997 9.59997 18.5997 9.79997 18.3997C9.89997 18.2997 10.8 17.3997 11.8 16.3997L16 19.4997C16.8 19.8997 17.3 19.6997 17.5 18.7997L20.3 5.69972C20.6 4.59972 19.9 3.99972 19.2 4.39972ZM17.1 7.39972L9.29997 14.4997L8.99997 17.7997L7.39997 12.9997L16.6 7.19972C17 6.89972 17.4 7.09972 17.1 7.39972Z" fill="currentColor"/>

</svg>
