<svg width="24" height="24" viewBox="0 0 24 24" fill="none" xmlns="http://www.w3.org/2000/svg">
<path d="M14.2973 11.8128C13.9223 11.6718 13.9223 11.1333 13.899 10.7583C13.8053 9.42254 14.274 7.38329 13.7115 6.51629C13.3133 6.00029 11.391 6.04754 10.2195 6.11804C9.89104 6.16529 9.49279 6.23504 9.21154 6.37604C8.93029 6.51704 8.64904 6.75104 8.64904 6.96179C8.64904 7.26629 9.35254 7.21979 9.60979 7.61804C9.89104 8.04029 9.89104 8.95379 9.89104 9.70379C9.89104 10.5708 9.75004 11.7198 9.39904 11.7663C8.85979 11.7895 8.55529 11.2503 8.27404 10.852C7.71154 10.0788 7.14904 9.11729 6.72679 8.17979C6.51604 7.68779 6.39829 7.14854 6.09379 6.93779C5.62504 6.60929 4.78129 6.58604 3.96079 6.60929C3.21079 6.63254 2.13229 6.53879 1.92154 6.98429C1.75729 7.47629 2.10904 7.94504 2.29654 8.34404C3.25729 10.4298 4.28854 12.2583 5.55454 13.9923C6.72679 15.6093 7.82779 16.8985 9.98404 17.578C10.5938 17.7655 13.2653 18.3048 13.8045 17.578C13.992 17.2968 13.9455 16.6638 14.0393 16.195C14.133 15.7263 14.25 15.2575 14.6955 15.2343C15.0705 15.211 15.2813 15.5388 15.516 15.7735C15.774 16.0315 15.9848 16.2423 16.1723 16.477C16.6178 16.9225 17.0865 17.5315 17.649 17.7663C18.4223 18.0948 19.6178 18.001 20.7428 17.9538C21.657 17.9305 22.3133 17.743 22.3838 17.2038C22.431 16.7815 21.9615 16.1725 21.6803 15.8208C20.9768 14.9538 20.649 14.6958 19.8518 13.8985C19.5 13.5468 19.0545 13.1718 19.0545 12.7503C19.0313 12.4923 19.242 12.2583 19.4295 12.0003C20.25 10.7815 21.0705 9.91454 21.8205 8.64854C22.0313 8.27354 22.524 7.40654 22.3365 6.98429C22.1258 6.51554 20.9535 6.65579 20.2268 6.65579C19.2893 6.65579 18.0705 6.58529 17.8358 6.77279C17.3903 7.07729 17.2028 7.57004 16.992 8.03879C16.5233 9.11729 15.8903 10.2183 15.234 11.0388C14.9993 11.32 14.5545 11.9058 14.2965 11.812L14.2973 11.8128Z" fill="currentColor"/>
</svg>
