<svg width="18" height="13" viewBox="0 0 18 13" fill="none" xmlns="http://www.w3.org/2000/svg">
<path d="M17.6235 2.02981C17.4165 1.23096 16.8067 0.601254 16.032 0.387509C14.6287 1.37484e-07 9 0 9 0C9 0 3.37125 1.37484e-07 1.96725 0.387509C1.19325 0.601254 0.5835 1.23019 0.3765 2.02981C0 3.47835 0 6.5 0 6.5C0 6.5 0 9.52165 0.3765 10.9702C0.5835 11.769 1.19325 12.3987 1.968 12.6125C3.37125 13 9 13 9 13C9 13 14.6288 13 16.0328 12.6125C16.8068 12.3987 17.4165 11.7698 17.6243 10.9702C18 9.52165 18 6.5 18 6.5C18 6.5 18 3.47835 17.6235 2.02981ZM7.1595 9.24409V3.75591L11.8635 6.5L7.1595 9.24409Z" fill="currentColor"/>
</svg>
