<svg width="959" height="879" viewBox="0 0 959 879" fill="none" xmlns="http://www.w3.org/2000/svg">
<path d="M-241 114.625C-218.066 111.093 -195.438 104.803 -172.83 99.4795C-110.522 84.8069 -47.4625 78.9297 16.2165 76.2742C31.8414 75.6226 74.9679 74.6011 93.0206 75.1626C106.479 75.5812 123.344 75.2523 133.613 86.5568C148.681 103.142 134.316 130.81 129.361 148.947C118.019 190.463 102.85 233.19 102.041 276.923C101.597 300.939 99.3356 352.224 127.041 362.519C155.14 372.959 195.753 358.481 222.273 349.04C294.225 323.426 362.867 289.41 439.284 282.065C481.062 278.049 538.147 272.764 576.268 296.655C602.205 312.909 607.207 336.832 606.294 366.965C604.891 413.251 591.496 455.326 579.103 499.249C563.771 553.587 549.223 612.436 548.691 669.606C548.38 703.028 555.199 726.925 577.299 750.755C602.997 778.464 635.824 792.833 671.629 797.999C741.23 808.041 813.845 802.446 884 802.446" stroke="#EDEFF8" stroke-width="150" stroke-linecap="round"/>
</svg>
