<svg width="1144" height="1025" viewBox="0 0 1144 1025" fill="none" xmlns="http://www.w3.org/2000/svg">
<path d="M-56 122.561C-33.066 118.321 -10.4377 110.772 12.1701 104.382C74.4776 86.771 137.538 79.7167 201.216 76.5294C216.841 75.7473 259.968 74.5212 278.021 75.1952C291.479 75.6976 308.344 75.3028 318.613 88.8713C333.681 108.778 319.316 141.987 314.361 163.757C303.019 213.587 287.85 264.871 287.041 317.363C286.597 346.188 284.336 407.745 312.041 420.101C340.14 432.633 380.753 415.255 407.273 403.923C479.225 373.179 547.867 332.351 624.284 323.534C666.062 318.714 723.147 312.371 761.268 341.046C787.205 360.556 792.207 389.27 791.294 425.438C789.891 480.994 776.496 531.496 764.103 584.215C748.771 649.436 734.223 720.07 733.691 788.69C733.38 828.805 740.199 857.489 762.299 886.091C787.997 919.35 820.824 936.597 856.629 942.797C926.23 954.85 998.845 948.134 1069 948.134" stroke="#EDEFF8" stroke-width="150" stroke-linecap="round"/>
</svg>
