<svg width="1440" height="1118" viewBox="0 0 1440 1118" fill="none" xmlns="http://www.w3.org/2000/svg">
<path d="M-199 803.302C-188.95 805.81 -182.092 808.606 -172.677 813.371C-122.759 838.636 -73.1197 863.937 -21.0791 885.873C152.606 959.086 335.503 993.162 526.133 1013.42C536.829 1014.56 751.148 1038.23 742.482 995.634C740.366 985.229 734.82 975.543 729.801 965.928C706.157 920.631 670.934 866.423 643.915 824.616C600.425 757.325 554.075 691.499 510.57 624.228C483.487 582.35 396.309 475.833 477.714 438.442C518.763 419.587 574.862 434.492 616.823 442.469C694.151 457.17 763.456 487.523 843.547 491.475C880.063 493.277 927.132 498.62 949.993 467.812C967.27 444.528 954.591 412.338 941.923 389.603C914.863 341.043 877.22 296.933 847.967 249.298C827.969 216.735 800.649 166.305 829.329 130.643C846.734 109.002 872.062 97.8786 901.958 97.0776C970.438 95.2427 1044.9 126.396 1108.51 144.741C1228.68 179.399 1346.87 218.413 1468 250.473" stroke="#EFF3F8" stroke-opacity="0.5" stroke-width="194" stroke-linecap="round"/>
</svg>
