<svg width="1077" height="879" viewBox="0 0 1077 879" fill="none" xmlns="http://www.w3.org/2000/svg">
<path d="M76 114.625C98.934 111.093 121.562 104.803 144.17 99.4795C206.478 84.8069 269.538 78.9297 333.216 76.2742C348.841 75.6226 391.968 74.6011 410.021 75.1626C423.479 75.5812 440.344 75.2523 450.613 86.5568C465.681 103.142 451.316 130.81 446.361 148.947C435.019 190.463 419.85 233.19 419.041 276.923C418.597 300.939 416.336 352.224 444.041 362.519C472.14 372.959 512.753 358.481 539.273 349.04C611.225 323.426 679.867 289.41 756.284 282.065C798.062 278.049 855.147 272.764 893.268 296.655C919.205 312.909 924.207 336.832 923.294 366.965C921.891 413.251 908.496 455.326 896.103 499.249C880.771 553.587 866.223 612.436 865.691 669.606C865.38 703.028 872.199 726.925 894.299 750.755C919.997 778.464 952.824 792.833 988.629 797.999C1058.23 808.041 1130.84 802.446 1201 802.446" stroke="#EDEFF8" stroke-width="150" stroke-linecap="round"/>
</svg>
