<?xml version="1.0" encoding="utf-8"?><svg viewBox="0 0 27 27" xmlns="http://www.w3.org/2000/svg" xmlns:xlink="http://www.w3.org/1999/xlink"><style>:root>svg{display:none}:root>svg:target{display:block}</style><svg fill="none" viewBox="0 0 27 27" id="arrow-link" xmlns="http://www.w3.org/2000/svg"><path d="M8.904 6.606v1.62l8.715.006L6.031 19.82l1.15 1.15L18.767 9.38l.006 8.716h1.62V6.607H8.904Z" fill="#272727"/></svg><svg fill="none" viewBox="0 0 25 25" id="mail" xmlns="http://www.w3.org/2000/svg"><path d="m4.167 7.292 6.458 4.844a3.125 3.125 0 0 0 3.75 0l6.458-4.844" stroke="#5E86B6" stroke-width="2.083" stroke-linecap="round" stroke-linejoin="round"/><path d="M19.792 5.208H5.208c-1.15 0-2.083.933-2.083 2.083v10.417c0 1.15.933 2.083 2.083 2.083h14.584c1.15 0 2.083-.932 2.083-2.083V7.291c0-1.15-.933-2.083-2.083-2.083Z" stroke="#5E86B6" stroke-width="2.083" stroke-linecap="round"/></svg><svg fill="none" viewBox="0 0 17 12" id="slider-arrow-left" xmlns="http://www.w3.org/2000/svg"><path d="M.444 6.556a.786.786 0 0 1 0-1.112l5-5a.786.786 0 0 1 1.112 1.111L2.11 6l4.445 4.445a.786.786 0 1 1-1.111 1.11l-5-5ZM17 6.786H1V5.214h16v1.572Z" fill="currentColor"/></svg><svg fill="none" viewBox="0 0 17 12" id="slider-arrow-right" xmlns="http://www.w3.org/2000/svg"><path d="M16.556 6.556a.786.786 0 0 0 0-1.112l-5-5a.786.786 0 1 0-1.112 1.111L14.89 6l-4.445 4.445a.786.786 0 1 0 1.111 1.11l5-5ZM0 6.786h16V5.214H0v1.572Z" fill="currentColor"/></svg><svg fill="none" viewBox="0 0 24 24" id="tel" xmlns="http://www.w3.org/2000/svg"><path d="M3 5.5C3 14.06 9.94 21 18.5 21c.386 0 .77-.014 1.148-.042.435-.032.653-.048.851-.162a1.06 1.06 0 0 0 .402-.432c.099-.206.099-.446.099-.926v-2.817c0-.404 0-.606-.067-.779a.999.999 0 0 0-.277-.396c-.14-.122-.33-.191-.71-.329l-3.206-1.166c-.441-.16-.662-.24-.872-.227a1 1 0 0 0-.513.182c-.171.121-.292.322-.534.725L14 16a12.1 12.1 0 0 1-6-6l1.369-.821c.402-.242.604-.363.725-.534a1 1 0 0 0 .182-.513c.014-.21-.066-.43-.227-.872L8.883 4.053c-.138-.38-.207-.569-.329-.709a1 1 0 0 0-.396-.278C7.985 3 7.783 3 7.379 3H4.562c-.48 0-.72 0-.926.1a1.06 1.06 0 0 0-.432.401c-.114.198-.13.416-.162.85C3.014 4.732 3 5.115 3 5.5Z" stroke="#5E86B6" stroke-width="2.083" stroke-linecap="round" stroke-linejoin="round"/></svg><svg fill="none" viewBox="0 0 24 24" id="tg" xmlns="http://www.w3.org/2000/svg"><path d="M19.2 4.4 2.9 10.7c-1.1.4-1.1 1.1-.2 1.3l4.1 1.3 1.6 4.8c.2.5.1.7.6.7.4 0 .6-.2.8-.4l2-2 4.2 3.1c.8.4 1.3.2 1.5-.7l2.8-13.1c.3-1.1-.4-1.7-1.1-1.3Zm-2.1 3-7.8 7.1-.3 3.3L7.4 13l9.2-5.8c.4-.3.8-.1.5.2Z" fill="currentColor"/></svg><svg fill="none" viewBox="0 0 24 24" id="vk" xmlns="http://www.w3.org/2000/svg"><path d="M14.297 11.813c-.375-.141-.375-.68-.398-1.055-.094-1.335.375-3.375-.188-4.242-.398-.516-2.32-.468-3.492-.398-.328.047-.726.117-1.007.258-.282.141-.563.375-.563.586 0 .304.704.258.96.656.282.422.282 1.336.282 2.086 0 .867-.141 2.016-.492 2.062-.54.024-.844-.516-1.125-.914A15.636 15.636 0 0 1 6.727 8.18c-.211-.492-.329-1.031-.633-1.242-.469-.329-1.313-.352-2.133-.329-.75.024-1.829-.07-2.04.375-.164.492.188.961.376 1.36.96 2.086 1.992 3.914 3.258 5.648 1.172 1.617 2.273 2.906 4.429 3.586.61.188 3.281.727 3.82 0 .188-.281.141-.914.235-1.383s.211-.938.656-.96c.375-.024.586.304.821.539.258.258.469.468.656.703.446.445.915 1.055 1.477 1.29.773.328 1.969.234 3.094.187.914-.024 1.57-.211 1.64-.75.048-.422-.421-1.032-.703-1.383-.703-.867-1.031-1.125-1.828-1.922-.352-.352-.797-.727-.797-1.149-.024-.258.187-.492.375-.75.82-1.219 1.64-2.085 2.39-3.351.211-.375.704-1.242.517-1.665-.211-.468-1.384-.328-2.11-.328-.938 0-2.157-.07-2.391.117-.446.304-.633.797-.844 1.266-.469 1.078-1.102 2.18-1.758 3-.235.281-.68.867-.938.773h.001Z" fill="currentColor"/></svg><svg fill="none" viewBox="0 0 18 13" id="yt" xmlns="http://www.w3.org/2000/svg"><path d="M17.623 2.03A2.292 2.292 0 0 0 16.032.388C14.629 0 9 0 9 0S3.371 0 1.967.388A2.291 2.291 0 0 0 .377 2.03C0 3.478 0 6.5 0 6.5s0 3.022.377 4.47a2.292 2.292 0 0 0 1.591 1.643C3.371 13 9 13 9 13s5.629 0 7.033-.387a2.294 2.294 0 0 0 1.591-1.643C18 9.522 18 6.5 18 6.5s0-3.022-.377-4.47ZM7.16 9.244V3.756L11.864 6.5 7.159 9.244Z" fill="currentColor"/></svg></svg>